<svg xmlns="http://www.w3.org/2000/svg" viewBox="0 0 188 110" width="188" height="110"><defs></defs><g transform="matrix(1,0,0,1,49.9,6)">
<g>
	<g>
		<path d="M-26.572587919100314,57.17484278372453 L123.4675057556414,-5.999999999999993 L130.00805899381675,9.53379758933545 L-20.03203468092495,72.70864037305998 L-26.572587919100314,57.17484278372453 Z" transform="matrix(1,0,0,1,0,0)" fill="#c8c8c8" stroke="#000000"/>
	</g>
	<g>
		<path d="M-23.002567310474923,64.82486955080387 L126.50920315056399,1.88377082225621 L127.49612861684824,4.228136852687761 L-22.015641844190675,67.16923558123541 L-23.002567310474923,64.82486955080387 Z" fill="#fefefe"/>
	</g>
	<g>
		<path d="M-20.03204786591972,72.70866674511993 C-20.03205182,72.70866841 -6.58079497,104.65519177 -6.58079497,104.65519177 C-6.58079497,104.65519177 138.42792408,29.53084683 138.42792408,29.53084683 C138.42792408,29.53084683 130.00807267,9.53372078 130.00807267,9.53372078 C130.00807267,9.53372078 35.690857691858625,49.24633190389079 35.690857691858625,49.24633190389079 C35.69085769,49.2463319 28.000000000000004,33.16000000000001 28.000000000000004,33.16000000000001 C28.000000000000004,33.16000000000001 -26.871906930419993,56.46396088013544 -26.871906930419993,56.46396088013544 C-26.871906930419993,56.46396088013544 -20.032043911839438,72.70866508023985 -20.03204786591972,72.70866674511993 Z" fill="#4a0a0a" stroke="#000000" stroke-linejoin="round"/>
	</g>
	<g>
		<path d="M45.400000000000006,69.20000000000002 C34.43615365730709,73.87919889131739 23.472307314614174,78.55839778263476 16.326843114676635,78.51676129540672 C9.181378914739096,78.47512480817869 5.854296857556936,73.71265294240521 4.559147181455828,68.6273277070353 C3.2639975053547206,63.54200247166539 4.000780210334668,58.133823866699025 7.244278859317333,54.8514658691251 C10.487777508299999,51.569107871551175 16.237992101285386,50.41257048136967 19.62472364484236,51.35548700101815 C23.01145518839933,52.298403520666625 24.034703682527905,55.34077395014511 35.690857693803295,51.09176988298706 C47.347011705078685,46.842765815829004 69.63607123350096,35.30238725203442 79.79999999999995,34.021016126759854 C89.96392876649895,32.739645001485286 88.00272677107463,41.71728131473074 80.24853831075409,49.29027986669077 C72.49434985043354,56.86327841865079 58.94717492521677,63.031639209325405 45.400000000000006,69.20000000000002" fill="#c0c0c0" stroke="#000000"/>
	</g>
	<g>
		<path d="M11.835178339880443,122.60634166302708 C11.736882551590547,122.70441259153452 11.642375009725601,122.80632509177542 11.551905955829742,122.91184385000744 C10.789544196900053,123.80102598093197 10.31395718348065,124.94629002309802 10.274886585465504,126.20682695745161 C10.183941211195041,129.1410027597284 12.49230293618562,131.59827405494934 15.425005567096791,131.68917376797447 C16.21019987236133,131.71351102476456 16.961230550477097,131.56577277199455 17.641851468667713,131.28004292501257 C18.397519023106604,130.962807928367 19.06639375148902,130.47547321193215 19.598869206374914,129.86468601296485 C22.195271893125877,127.96489827947659 24.54135866368123,126.11262691094724 25.62499999910331,124.50000000069235 C26.976643269806093,122.48854451246919 26.36417718166025,120.84992725446344 25.250000001857963,119.12500000130359 C24.13582281663227,117.40007274797563 22.519934539918317,115.58883549406741 21.279002579436693,114.46226348843926 C20.45676937029205,113.71580441605971 25.355101731871112,110.36771041819203 24.69642713713352,109.7660956823037 C24.361015933625772,109.4597405803695 18.469381733386065,112.01522344284649 18.111545110833568,111.56784123925814 C17.05099525188021,110.24189776949979 15.79587117805461,108.03191759275735 18.943992792957303,105.727790823979 C22.09211440786,103.42366405520065 29.643481700644184,101.02539069405016 28.870946681757726,100.71276094587733 C28.098411662871264,100.40013119770452 19.001974326890753,102.17314506234126 14.4354220226612,104.06727023602433 C9.868869718431643,105.9613954097074 9.832202456631677,107.9766318981991 10.776075074447489,110.03695412392767 C11.719947692263302,112.09727634965624 13.644360200373526,114.202684318384 14.844876235742976,115.37715837478814 C16.045392271112426,116.55163243119227 16.52201184441973,116.7951725810351 15.852534052194134,117.89579784512549 C15.217894199357122,118.939149335607 13.55333351356268,120.75270573683889 11.835178339880443,122.60634166302708 Z" transform="matrix(1.213403045,-0.881846387,0.881846387,1.213403045,-102.963554819,-77.391043533)" fill="#c8c8c8" stroke="#000000" stroke-width="0.7"/>
	</g>
	<g>
		<path d="M15.586804139539291,26.22396583931683 C17.079885522397266,23.936850417112044 18.428769632853225,22.167843153652104 18.596260408721754,22.27718497209372 C18.763751184590287,22.386526790535342 17.68697286011868,24.3331709494824 16.193891477260706,26.62028637168719 C14.700810094402733,28.907401793891975 13.351925983946776,30.676409057351915 13.184435208078243,30.567067238910298 C13.016944432209712,30.457725420468677 14.093722756681318,28.511081261521618 15.586804139539291,26.22396583931683 Z" fill="#fefefe"/>
	</g>
	<g>
		<path d="M50.60842733383955,14.672900777777302 C52.38316501842887,19.601711703577525 53.29109951739149,27.09108663475859 53.47453578198308,34.018720674644 C53.65797204657467,40.94635471452941 53.11691007679524,47.312247863119175 56.08203180264106,47.43657882880838 C59.04715352848688,47.56090979449758 65.51845894995796,41.44367857728624 69.84375,40.46875 C74.16904105004204,39.49382142271376 76.34831772865506,43.66119548535262 73.59375,45.93749999999999 C70.83918227134494,48.213804514647364 63.15077013542181,48.59903948130324 58.594670452567826,49.735004485612166 C54.03857076971384,50.870969489921094 52.614783539929,52.75766453188307 52.03314732503548,48 C51.45151111014196,43.24233546811693 51.71202591013976,31.840311362388793 50.87974949932591,24.56329796392299 C50.047473088512064,17.28628456545719 48.12240546688656,14.13428187425372 46.71875,11.562499999999996 C45.31509453311344,8.990718125746273 44.4328512209658,6.999157068442298 45.3125,7.1875 C46.1921487790342,7.375842931557702 48.83368964925023,9.74408985197708 50.60842733383955,14.672900777777302 Z" transform="matrix(0.917344968,-0.180238324,0.176249629,0.897044016,3.510536843,13.284449156)" fill="#c8c8c8" stroke="#000000"/>
	</g>
	<g>
		<path d="M27.26477976990617,56.60301658210595 C30.22268030249701,56.60301658210595 32.62538530255002,59.10030601981118 32.62538530255002,62.17464671401159 C32.62538530255002,65.248987408212 30.22268030249701,67.74627684591722 27.26477976990617,67.74627684591722 C24.30687923731533,67.74627684591722 21.904174237262318,65.248987408212 21.904174237262318,62.17464671401159 C21.904174237262318,59.10030601981118 24.30687923731533,56.60301658210595 27.26477976990617,56.60301658210595 Z" fill="#c0c0c0"/>
	</g>
	<g>
		<path d="M24.30852693727434,59.17444193589025 C24.298405417880083,58.68930227663379 25.789288442428344,58.26394695933992 27.634792870770916,58.225444007649074 C29.480297299113488,58.186941055958236 30.987623760476996,58.54974441552056 30.997745279871257,59.03488407477702 C31.007866799265514,59.52002373403348 29.516983774717254,59.94537905132735 27.67147934637468,59.983882003018195 C25.82597491803211,60.02238495470903 24.3186484566686,59.65958159514671 24.30852693727434,59.17444193589025 Z" fill="#fefefe"/>
	</g>
	<g>
		<path d="M27.26477976990617,56.603016582105965 C27.26477976990617,56.603016582105965 27.26477976990617,67.74627684591724 27.26477976990617,67.74627684591724" fill="none" stroke="#c8c8c8" stroke-width="2"/>
	</g>
	<g>
		<path d="M-49.90000000000001,28.9 L-49.70000000000001,28.9 L-49.70000000000001,29.1 L-49.90000000000001,29.1 L-49.90000000000001,28.9 Z" fill="#fefefe" stroke="#000000" stroke-width="2"/>
	</g>
	<g>
		<path d="M76.4524175769,37.91389964053022 C77.37225208116159,37.91389964053022 78.11943439451504,38.66633659780482 78.11943439451504,39.592639942 C78.11943439451504,40.518943286195174 77.37225208116159,41.27138024346978 76.4524175769,41.27138024346978 C75.53258307263842,41.27138024346978 74.78540075928497,40.518943286195174 74.78540075928497,39.592639942 C74.78540075928497,38.66633659780482 75.53258307263842,37.91389964053022 76.4524175769,37.91389964053022 Z" fill="#c0c0c0"/>
	</g>
	<g>
		<path d="M77.00808984943833,38.473479741020135 C77.31470135085887,38.473479741020135 77.5637621219767,38.72429206011167 77.5637621219767,39.03305984151006 C77.5637621219767,39.34182762290845 77.31470135085887,39.592639941999984 77.00808984943833,39.592639941999984 C76.7014783480178,39.592639941999984 76.45241757689998,39.34182762290845 76.45241757689998,39.03305984151006 C76.45241757689998,38.72429206011167 76.7014783480178,38.473479741020135 77.00808984943833,38.473479741020135 Z" fill="#ffffff"/>
	</g>
	<g>
		<path d="M48.5,12.875 C50.034133355872044,14.206309225234985 51.56826671174409,15.53761845046997 52.9375,17.6875 C54.30673328825591,19.83738154953003 55.511066508895695,22.80583542335509 56.5,25.8125 C57.488933491104305,28.81916457664491 58.26246725267311,31.864039856109677 58.68990063108387,33.614991639912986 C59.117334009494634,35.365943423716296 59.19866700474732,35.82297171185815 59.28,36.28" transform="matrix(1,0,0,1,-1,0)" fill="none" stroke="#ffffff" stroke-width="0.5" stroke-linecap="round" stroke-linejoin="round"/>
	</g>
</g></g></svg>