<svg xmlns="http://www.w3.org/2000/svg" viewBox="0 0 165 110" width="165" height="110"><defs></defs><g transform="matrix(1,0,0,1,26.572587919,6)">
<rect fill="#ffffff" x="0" y="0" width="96" height="96"/>
<g>
	<g>
		<path d="M-26.5725879191003,57.17484278372453 L123.46750575564138,-5.999999999999993 L130.00805899381675,9.53379758933545 L-20.032034680924937,72.70864037305998 L-26.5725879191003,57.17484278372453 Z" transform="matrix(1,0,0,1,0,0)" fill="#c8c8c8" stroke="#000000"/>
	</g>
	<g>
		<path d="M-23.002567310474923,64.82486955080387 L126.50920315056399,1.88377082225621 L127.49612861684824,4.228136852687761 L-22.015641844190675,67.16923558123541 L-23.002567310474923,64.82486955080387 Z" fill="#fefefe"/>
	</g>
	<g>
		<path d="" fill="#fefefe" stroke="#000000" stroke-width="2"/>
	</g>
	<g>
		<path d="M-8.75005,25.1563 C-8.75,38.59375 -8.75,45.625 -8.75,45.625 C-8.75,45.625 109.0625,37.96875 109.0625,37.96875 C109.0625,37.96875 109.0625,25.15625 109.0625,25.15625" transform="matrix(1.273549867,-0.536232087,0.657159135,1.560751302,-25.420132828,28.753959672)" fill="#490909" stroke="#000000" stroke-width="0.5"/>
	</g>
	<g>
		<path d="M11.835178339880443,122.60634166302708 C11.736882551590547,122.70441259153452 11.642375009725601,122.80632509177542 11.551905955829742,122.91184385000744 C10.789544196900053,123.80102598093197 10.31395718348065,124.94629002309802 10.274886585465504,126.20682695745161 C10.183941211195041,129.1410027597284 12.49230293618562,131.59827405494934 15.425005567096791,131.68917376797447 C16.21019987236133,131.71351102476456 16.961230550477097,131.56577277199455 17.641851468667713,131.28004292501257 C18.397519023106604,130.962807928367 19.06639375148902,130.47547321193215 19.598869206374914,129.86468601296485 C22.195271893125877,127.96489827947659 24.54135866368123,126.11262691094724 25.62499999910331,124.50000000069235 C26.976643269806093,122.48854451246919 26.36417718166025,120.84992725446344 25.250000001857963,119.12500000130359 C24.13582281663227,117.40007274797563 22.519934539918317,115.58883549406741 21.279002579436693,114.46226348843926 C20.038070619123257,113.33569147738497 19.172094969786922,112.89378470901647 18.111545110833568,111.56784123925814 C17.05099525188021,110.24189776949979 15.79587117805461,108.03191759275735 18.943992792957303,105.727790823979 C22.09211440786,103.42366405520065 29.643481700644184,101.02539069405016 28.870946681757726,100.71276094587733 C28.098411662871264,100.40013119770452 19.001974326890753,102.17314506234126 14.4354220226612,104.06727023602433 C9.868869718431643,105.9613954097074 9.832202456631677,107.9766318981991 10.776075074447489,110.03695412392767 C11.719947692263302,112.09727634965624 13.644360200373526,114.202684318384 14.844876235742976,115.37715837478814 C16.045392271112426,116.55163243119227 16.52201184441973,116.7951725810351 15.852534052194134,117.89579784512549 C15.217894199357122,118.939149335607 13.55333351356268,120.75270573683889 11.835178339880443,122.60634166302708 Z" transform="matrix(1.213403045,-0.881846387,0.881846387,1.213403045,-102.963554819,-77.391043533)" fill="#c8c8c8" stroke="#000000" stroke-width="0.7"/>
	</g>
	<g>
		<path d="M15.586804139539291,26.22396583931683 C17.079885522397266,23.936850417112044 18.428769632853225,22.167843153652104 18.596260408721754,22.27718497209372 C18.763751184590287,22.386526790535342 17.68697286011868,24.3331709494824 16.193891477260706,26.62028637168719 C14.700810094402733,28.907401793891975 13.351925983946776,30.676409057351915 13.184435208078243,30.567067238910298 C13.016944432209712,30.457725420468677 14.093722756681318,28.511081261521618 15.586804139539291,26.22396583931683 Z" fill="#fefefe"/>
	</g>
	<g>
		<path d="M50.60842733383955,14.672900777777302 C52.38316501842887,19.601711703577525 53.29109951739149,27.09108663475859 53.47453578198308,34.018720674644 C53.65797204657467,40.94635471452941 53.11691007679524,47.312247863119175 56.08203180264106,47.43657882880838 C59.04715352848688,47.56090979449758 65.51845894995796,41.44367857728624 69.84375,40.46875 C74.16904105004204,39.49382142271376 76.34831772865506,43.66119548535262 73.59375,45.93749999999999 C70.83918227134494,48.213804514647364 63.15077013542181,48.59903948130324 58.594670452567826,49.735004485612166 C54.03857076971384,50.870969489921094 52.614783539929,52.75766453188307 52.03314732503548,48 C51.45151111014196,43.24233546811693 51.71202591013976,31.840311362388793 50.87974949932591,24.56329796392299 C50.047473088512064,17.28628456545719 48.12240546688656,14.13428187425372 46.71875,11.562499999999996 C45.31509453311344,8.990718125746273 44.4328512209658,6.999157068442298 45.3125,7.1875 C46.1921487790342,7.375842931557702 48.83368964925023,9.74408985197708 50.60842733383955,14.672900777777302 Z" transform="matrix(0.981239602,-0.192792229,0.192792229,0.981239602,-4.48781434,9.109280207)" fill="#c8c8c8" stroke="#000000"/>
	</g>
</g></g></svg>